<svg xmlns="http://www.w3.org/2000/svg" width="142" height="142" viewBox="0 0 142 142" fill="none">
<rect fill="#DBDBDB" width="142" height="142" x="0" y="0"/>
<path d="M66.3164 19.0929C60.6187 19.9968 56.18 23.4348 53.3231 29.1647C52.7905 30.2461 52.2417 31.602 52.0964 32.1669C51.5153 34.5557 51.6122 38.3649 52.3547 41.4962L52.6613 42.8359L52.2739 43.3524C51.4669 44.4177 51.3862 45.4507 51.8543 48.1785C52.2255 50.3575 52.5322 51.3421 53.1617 52.3912C53.4199 52.8109 53.7105 53.5372 53.8073 54.0053C55.2277 60.8812 60.0538 67.3536 65.816 70.0976C67.6076 70.953 68.6406 71.2274 70.3354 71.3404C74.5643 71.5987 78.5026 69.8232 82.1665 65.9978C85.0235 62.9957 87.606 58.2826 88.4937 54.4411C88.6067 53.9569 89.0102 52.8916 89.3976 52.1007C90.2208 50.422 90.5597 49.0178 90.705 46.8549C90.8018 45.0956 90.6243 44.2079 89.9948 43.4654L89.5751 42.965L90.0755 40.9152C91.0117 37.1382 91.0924 34.814 90.4145 32.1185C89.3492 27.8735 85.7336 24.1934 80.3911 21.9014C75.9201 19.9968 72.579 19.1091 69.4477 19.0122C68.2533 18.9799 66.849 19.0122 66.3164 19.0929Z" fill="white"/>
<path d="M56.0509 69.2423C55.4375 69.6781 53.1617 70.8887 52.1771 71.3083C49.4493 72.4704 48.61 72.7933 45.8822 73.7617C42.7671 74.8593 41.8632 75.2628 40.4105 76.1828C38.4898 77.4095 37.2308 78.9913 35.6651 82.1226C32.7114 88.0301 31.065 96.6169 31.0005 106.495C30.9843 109.642 31.3717 111.257 32.3563 112.193C38.836 118.096 52.1771 122.5 70.3028 122.5C88.4285 122.501 108.008 113.129 108.008 113.129C108.008 113.129 111.091 111.579 111.414 108.432C111.752 105.075 110.913 95.5839 109.864 91C108.653 85.7542 106.2 80.1373 104.15 77.9421C102.536 76.1989 100.745 75.2144 96.5156 73.7294C92.1415 72.2122 88.0256 70.3883 86.3954 69.2423C85.8466 68.8549 85.6529 68.8872 84.7329 69.5651L83.9259 70.1623L84.0227 76.2958C84.1196 82.0742 84.1034 82.4615 83.8129 83.1556C83.6515 83.5591 82.2634 87.2392 80.7462 91.3228C79.2289 95.4064 77.7924 99.2156 77.5826 99.7967C77.3566 100.378 77.0015 101.314 76.7917 101.895C76.5819 102.476 76.2268 103.412 76.0008 103.993C75.7748 104.574 75.0162 106.64 74.2899 108.593C72.7888 112.629 72.6597 112.919 72.1593 113.258C71.6267 113.645 70.6744 113.581 70.174 113.145C69.8512 112.871 68.915 110.514 65.8967 102.46C63.7661 96.7783 61.8454 91.6617 61.6194 91.0807C61.4096 90.4996 60.9738 89.3375 60.651 88.4982C59.5857 85.6413 59.2952 84.8665 58.8109 83.6398L58.3428 82.4131L58.4397 76.3119L58.5527 70.2107L57.7134 69.5813C56.7611 68.8872 56.5997 68.8549 56.0509 69.2423Z" fill="white"/>
<path d="M66.3809 74.6012C66.3809 74.698 67.3009 76.1507 68.4147 77.8616C69.5284 79.5564 70.4807 81.0413 70.5291 81.1543C70.5614 81.2673 69.7059 82.2358 68.6245 83.2849L66.6553 85.2056L67.3171 89.2408C67.6883 91.4521 68.6083 97.0368 69.367 101.653C70.1256 106.269 70.7873 110.175 70.8358 110.321C70.9487 110.676 71.4814 110.708 71.6105 110.369C71.6589 110.224 71.9979 108.319 72.353 106.124C72.7242 103.929 73.5474 98.8284 74.2253 94.7932C74.8871 90.7581 75.5004 86.9488 75.5973 86.3355L75.7748 85.2379L73.8057 83.2526L71.8365 81.2835L72.24 80.654C72.4498 80.2989 73.4021 78.8301 74.3544 77.3935C75.3067 75.9409 76.0654 74.7303 76.0331 74.698C76.0008 74.6658 75.5489 74.7465 75.0162 74.8756C72.7726 75.4244 68.4631 75.3275 66.9297 74.6819C66.623 74.5528 66.3809 74.5205 66.3809 74.6012Z" fill="white"/>
</svg>
